<?xml version="1.0" encoding="UTF-8" standalone="no"?>
<!-- Created with Inkscape (http://www.inkscape.org/) -->

<svg
   xmlns:dc="http://purl.org/dc/elements/1.1/"
   xmlns:cc="http://creativecommons.org/ns#"
   xmlns:rdf="http://www.w3.org/1999/02/22-rdf-syntax-ns#"
   xmlns:svg="http://www.w3.org/2000/svg"
   xmlns="http://www.w3.org/2000/svg"
   xmlns:sodipodi="http://sodipodi.sourceforge.net/DTD/sodipodi-0.dtd"
   xmlns:inkscape="http://www.inkscape.org/namespaces/inkscape"
   version="1.0"
   width="686.93103"
   height="472.60699"
   viewBox="0 0 686.931 472.607"
   id="Layer_1"
   xml:space="preserve"
   inkscape:version="0.91 r13725"
   sodipodi:docname="Logo-Book-Code.svg"
   inkscape:export-filename="D:\Users\Sarah\Documents\CodeThesaurus\Logo-Book-Code.png"
   inkscape:export-xdpi="299.93176"
   inkscape:export-ydpi="299.93176"><title
     id="title4182">Code Thesaurus Logo</title><sodipodi:namedview
     pagecolor="#ffffff"
     bordercolor="#666666"
     borderopacity="1"
     objecttolerance="10"
     gridtolerance="10"
     guidetolerance="10"
     inkscape:pageopacity="0"
     inkscape:pageshadow="2"
     inkscape:window-width="1600"
     inkscape:window-height="837"
     id="namedview3356"
     showgrid="false"
     inkscape:zoom="1.14"
     inkscape:cx="458.64995"
     inkscape:cy="218.79859"
     inkscape:window-x="-8"
     inkscape:window-y="-8"
     inkscape:window-maximized="1"
     inkscape:current-layer="Layer_1" /><defs
     id="defs36" /><path
     d="M 685.532,220.804 C 685.291,220.13 684.949,219.472 684.531,218.867 C 684.113,218.262 683.619,217.708 683.074,217.243 C 682.53,216.778 681.934,216.4 681.313,216.147 L 395.961,99.799 C 395.544,99.626 395.121,99.404 394.69,99.128 C 394.259,98.852 393.82,98.521 393.37,98.128 C 392.92,97.735 392.458,97.282 391.982,96.761 C 391.506,96.24 391.017,95.651 390.511,94.989 C 389.758,94.004 388.99,92.858 388.22,91.569 C 387.45,90.28 386.677,88.848 385.917,87.292 C 385.156,85.736 384.408,84.056 383.687,82.27 C 382.965,80.483 382.27,78.592 381.616,76.613 C 380.957,74.631 380.335,72.563 379.758,70.427 C 379.182,68.29 378.651,66.083 378.173,63.825 C 377.694,61.565 377.27,59.253 376.905,56.906 C 376.541,54.556 376.238,52.171 376.005,49.768 C 375.689,46.56 375.512,43.476 375.464,40.549 C 375.415,37.616 375.494,34.839 375.69,32.248 C 375.885,29.653 376.196,27.245 376.611,25.055 C 377.026,22.862 377.546,20.887 378.155,19.163 C 378.458,18.301 378.784,17.503 379.128,16.771 C 379.472,16.039 379.834,15.373 380.211,14.775 C 380.587,14.176 380.978,13.646 381.378,13.186 C 381.778,12.726 382.189,12.335 382.604,12.016 C 382.679,11.959 382.754,11.904 382.83,11.851 C 382.906,11.798 382.98,11.747 383.055,11.7 C 383.13,11.651 383.205,11.605 383.28,11.561 C 383.355,11.517 383.429,11.475 383.505,11.435 C 260.049,77.4 136.605,143.361 13.151,209.323 C 13.087,209.357 13.024,209.393 12.96,209.432 C 12.896,209.471 12.833,209.512 12.77,209.555 C 12.707,209.598 12.644,209.644 12.581,209.691 C 12.519,209.739 12.456,209.789 12.393,209.841 C 12.049,210.133 11.718,210.503 11.405,210.947 C 11.092,211.391 10.796,211.91 10.521,212.502 C 10.247,213.094 9.993,213.759 9.764,214.497 C 9.535,215.234 9.331,216.042 9.156,216.922 C 8.801,218.678 8.559,220.709 8.44,222.983 C 8.32,225.253 8.322,227.763 8.452,230.483 C 8.582,233.198 8.841,236.122 9.235,239.225 C 9.629,242.321 10.159,245.594 10.832,249.014 C 11.333,251.575 11.896,254.124 12.51,256.642 C 13.124,259.158 13.789,261.643 14.498,264.079 C 15.206,266.512 15.956,268.896 16.74,271.213 C 17.523,273.527 18.341,275.775 19.182,277.938 C 20.018,280.095 20.882,282.166 21.757,284.127 C 22.632,286.089 23.518,287.941 24.401,289.666 C 25.284,291.389 26.164,292.983 27.024,294.427 C 27.885,295.871 28.727,297.164 29.535,298.286 C 30.079,299.04 30.598,299.716 31.097,300.317 C 31.596,300.92 32.074,301.449 32.534,301.913 C 32.994,302.377 33.438,302.774 33.867,303.114 C 34.296,303.454 34.71,303.734 35.114,303.964 L 314.83,460.724 C 315.447,461.07 316.053,461.544 316.621,462.105 C 317.188,462.667 317.718,463.315 318.181,464.009 C 318.644,464.702 319.04,465.443 319.344,466.188 C 319.647,466.932 319.857,467.681 319.945,468.393 C 319.989,468.751 320.001,469.083 319.983,469.386 C 319.964,469.69 319.916,469.965 319.84,470.21 C 319.764,470.455 319.66,470.67 319.532,470.854 C 319.404,471.037 319.25,471.188 319.075,471.306 C 440.943,389.449 562.81,307.59 684.678,225.731 C 684.878,225.596 685.059,225.432 685.216,225.241 C 685.373,225.05 685.508,224.831 685.616,224.587 C 685.724,224.343 685.806,224.074 685.86,223.781 C 685.913,223.489 685.937,223.173 685.929,222.836 C 685.915,222.167 685.774,221.477 685.532,220.804 z"
     id="path3"
     style="fill:#006680;stroke:#0088aa;stroke-width:2" /><g
     id="g5"><g
       id="g7"><g
         id="g9"><g
           id="g11"><path
             d="M 297.156,394.956 C 297.674,399.016 298.349,403.065 299.164,407.065 C 299.978,411.059 300.932,415.005 302.01,418.868 C 303.087,422.724 304.288,426.499 305.597,430.152 C 306.905,433.802 308.322,437.334 309.833,440.71 C 310.276,441.696 310.727,442.67 311.186,443.631 C 311.645,444.591 312.113,445.537 312.589,446.47 C 313.066,447.403 313.55,448.322 314.044,449.225 C 314.538,450.129 315.04,451.018 315.552,451.892 L 42.066,299.763 C 41.659,299.534 41.242,299.253 40.81,298.913 C 40.378,298.573 39.933,298.175 39.47,297.71 C 39.007,297.245 38.527,296.715 38.026,296.111 C 37.525,295.507 37.004,294.831 36.458,294.074 C 35.646,292.95 34.802,291.653 33.938,290.205 C 33.074,288.757 32.193,287.158 31.308,285.429 C 30.423,283.7 29.536,281.841 28.66,279.873 C 27.784,277.904 26.921,275.826 26.084,273.661 C 25.243,271.492 24.427,269.236 23.645,266.913 C 22.862,264.588 22.114,262.194 21.409,259.752 C 20.703,257.308 20.041,254.814 19.43,252.288 C 18.82,249.76 18.261,247.2 17.765,244.629 C 17.098,241.195 16.576,237.908 16.19,234.799 C 15.803,231.684 15.553,228.747 15.432,226.019 C 15.31,223.286 15.318,220.764 15.448,218.483 C 15.577,216.198 15.828,214.157 16.194,212.392 C 16.374,211.508 16.583,210.695 16.817,209.954 C 17.051,209.212 17.31,208.543 17.589,207.948 C 17.869,207.352 18.17,206.83 18.487,206.383 C 18.805,205.936 19.14,205.564 19.488,205.269 C 19.842,204.974 20.202,204.751 20.568,204.598 C 20.934,204.445 21.306,204.359 21.685,204.337 C 22.065,204.315 22.452,204.357 22.846,204.457 C 23.241,204.557 23.644,204.716 24.057,204.929 L 302.895,349.716 C 302.224,350.523 301.604,351.432 301.036,352.435 C 300.469,353.437 299.952,354.535 299.483,355.719 C 299.015,356.902 298.596,358.172 298.223,359.524 C 297.851,360.874 297.526,362.304 297.245,363.808 C 296.862,365.889 296.568,368.117 296.367,370.478 C 296.166,372.835 296.058,375.327 296.046,377.94 C 296.034,380.549 296.118,383.281 296.302,386.123 C 296.486,388.959 296.769,391.908 297.156,394.956 z"
             id="path13"
             style="fill:#3f973e" /></g></g></g></g><g
     id="g15"><g
       id="g17"><g
         id="g19"><g
           id="g21"><path
             d="M 297.156,394.956 C 297.674,399.016 298.349,403.065 299.164,407.065 C 299.978,411.059 300.932,415.005 302.01,418.868 C 303.087,422.724 304.288,426.499 305.597,430.152 C 306.905,433.802 308.322,437.334 309.833,440.71 C 310.276,441.696 310.727,442.67 311.186,443.631 C 311.645,444.591 312.113,445.537 312.589,446.47 C 313.066,447.403 313.55,448.322 314.044,449.225 C 314.538,450.129 315.04,451.018 315.552,451.892 L 42.066,299.763 C 41.659,299.534 41.242,299.253 40.81,298.913 C 40.378,298.573 39.933,298.175 39.47,297.71 C 39.007,297.245 38.527,296.715 38.026,296.111 C 37.525,295.507 37.004,294.831 36.458,294.074 C 35.646,292.95 34.802,291.653 33.938,290.205 C 33.074,288.757 32.193,287.158 31.308,285.429 C 30.423,283.7 29.536,281.841 28.66,279.873 C 27.784,277.904 26.921,275.826 26.084,273.661 C 25.243,271.492 24.427,269.236 23.645,266.913 C 22.862,264.588 22.114,262.194 21.409,259.752 C 20.703,257.308 20.041,254.814 19.43,252.288 C 18.82,249.76 18.261,247.2 17.765,244.629 C 17.098,241.195 16.576,237.908 16.19,234.799 C 15.803,231.684 15.553,228.747 15.432,226.019 C 15.31,223.286 15.318,220.764 15.448,218.483 C 15.577,216.198 15.828,214.157 16.194,212.392 C 16.374,211.508 16.583,210.695 16.817,209.954 C 17.051,209.212 17.31,208.543 17.589,207.948 C 17.869,207.352 18.17,206.83 18.487,206.383 C 18.805,205.936 19.14,205.564 19.488,205.269 C 19.842,204.974 20.202,204.751 20.568,204.598 C 20.934,204.445 21.306,204.359 21.685,204.337 C 22.065,204.315 22.452,204.357 22.846,204.457 C 23.241,204.557 23.644,204.716 24.057,204.929 L 302.895,349.716 C 302.224,350.523 301.604,351.432 301.036,352.435 C 300.469,353.437 299.952,354.535 299.483,355.719 C 299.015,356.902 298.596,358.172 298.223,359.524 C 297.851,360.874 297.526,362.304 297.245,363.808 C 296.862,365.889 296.568,368.117 296.367,370.478 C 296.166,372.835 296.058,375.327 296.046,377.94 C 296.034,380.549 296.118,383.281 296.302,386.123 C 296.486,388.959 296.769,391.908 297.156,394.956 z"
             id="path23"
             style="fill:#ffffff" /></g><path
           d="M 378.596,15.184 C 378.244,15.053 377.897,14.955 377.55,14.895 C 377.203,14.835 376.859,14.811 376.515,14.827 C 376.17,14.843 375.827,14.898 375.483,14.996 C 375.14,15.094 374.795,15.233 374.451,15.418 C 256.381,78.529 138.322,141.637 20.253,204.748 C 20.551,204.589 20.853,204.477 21.159,204.41 C 21.466,204.342 21.777,204.319 22.093,204.338 C 22.409,204.357 22.731,204.417 23.058,204.516 C 23.385,204.616 23.718,204.754 24.057,204.929 L 302.895,349.716 L 663.259,122.791 L 378.596,15.184 z"
           id="path25"
           style="fill:#3f973e" /><path
           d="M 664.589,216.434 C 664.158,215.627 663.738,214.806 663.33,213.97 C 662.921,213.134 662.522,212.283 662.135,211.419 C 661.747,210.555 661.369,209.676 661.002,208.784 C 659.75,205.733 658.614,202.522 657.606,199.184 C 656.598,195.844 655.719,192.376 654.981,188.816 C 654.243,185.251 653.645,181.591 653.203,177.871 C 652.759,174.145 652.471,170.357 652.349,166.541 C 652.261,163.677 652.273,160.896 652.379,158.211 C 652.484,155.522 652.686,152.927 652.976,150.438 C 653.267,147.945 653.647,145.559 654.111,143.29 C 654.576,141.017 655.126,138.863 655.755,136.837 C 656.213,135.373 656.711,133.975 657.251,132.648 C 657.79,131.319 658.371,130.063 658.994,128.884 C 659.618,127.704 660.284,126.602 660.994,125.585 C 661.704,124.566 662.459,123.633 663.258,122.79 L 302.894,349.715 C 302.223,350.522 301.603,351.431 301.035,352.434 C 300.468,353.436 299.951,354.534 299.482,355.718 C 299.014,356.901 298.595,358.171 298.222,359.523 C 297.85,360.873 297.525,362.303 297.244,363.807 C 296.861,365.888 296.567,368.116 296.366,370.477 C 296.165,372.834 296.057,375.326 296.045,377.939 C 296.033,380.548 296.117,383.28 296.301,386.122 C 296.485,388.96 296.768,391.908 297.155,394.956 C 297.673,399.016 298.348,403.065 299.163,407.065 C 299.977,411.059 300.931,415.005 302.009,418.868 C 303.086,422.724 304.287,426.499 305.596,430.152 C 306.904,433.802 308.321,437.334 309.832,440.71 C 310.275,441.696 310.726,442.67 311.185,443.631 C 311.644,444.591 312.112,445.537 312.588,446.47 C 313.065,447.403 313.549,448.322 314.043,449.225 C 314.537,450.129 315.039,451.018 315.551,451.892 L 665.913,218.808 C 665.461,218.032 665.02,217.24 664.589,216.434 z"
           id="path27"
           style="fill:#e2e3e4" /></g></g></g><path
     d="M 683.051,115.132 C 682.803,114.433 682.451,113.755 682.023,113.136 C 681.593,112.517 681.086,111.957 680.528,111.492 C 679.97,111.027 679.358,110.658 678.72,110.421 L 386.699,1.736 C 385.933,1.451 385.187,1.253 384.464,1.134 C 383.74,1.016 383.039,0.977 382.362,1.012 C 381.685,1.047 381.033,1.156 380.407,1.331 C 379.782,1.506 379.182,1.748 378.612,2.051 C 254.918,67.656 131.225,133.257 7.531,198.863 C 8.019,198.604 8.542,198.412 9.096,198.293 C 9.65,198.174 10.238,198.13 10.857,198.166 C 11.476,198.201 12.127,198.317 12.807,198.52 C 13.488,198.723 14.198,199.014 14.937,199.397 L 300.699,347.861 C 301.331,348.19 301.953,348.656 302.536,349.218 C 303.119,349.78 303.663,350.439 304.14,351.151 C 304.617,351.863 305.026,352.628 305.339,353.405 C 305.652,354.181 305.87,354.968 305.964,355.724 C 306.014,356.129 306.026,356.504 306.004,356.847 C 305.981,357.19 305.924,357.5 305.835,357.777 C 305.746,358.054 305.626,358.295 305.477,358.5 C 305.329,358.704 305.151,358.871 304.949,358.999 C 430.642,279.491 556.324,199.993 682.018,120.485 C 682.247,120.34 682.455,120.16 682.636,119.949 C 682.817,119.738 682.972,119.494 683.097,119.221 C 683.222,118.948 683.318,118.647 683.379,118.319 C 683.441,117.991 683.47,117.637 683.461,117.259 C 683.445,116.553 683.299,115.832 683.051,115.132 z"
     id="path29"
     style="fill:#006680;stroke:#006680;stroke-width:2" /><g
     id="g31"
     style="fill:#00aad4;stroke:#0088aa"><path
       d="M 14.937,199.397 L 300.699,347.861 C 301.331,348.19 301.953,348.656 302.536,349.218 C 303.119,349.78 303.663,350.439 304.14,351.151 C 304.617,351.863 305.026,352.628 305.339,353.405 C 305.652,354.181 305.87,354.968 305.964,355.724 C 306.058,356.481 306.019,357.133 305.868,357.666 C 305.717,358.199 305.455,358.612 305.102,358.89 C 304.749,359.167 304.306,359.309 303.793,359.298 C 303.28,359.288 302.698,359.126 302.067,358.795 L 16.918,209.515 C 16.509,209.302 16.108,209.143 15.717,209.042 C 15.326,208.941 14.942,208.898 14.566,208.919 C 14.191,208.94 13.822,209.024 13.461,209.176 C 13.099,209.328 12.744,209.548 12.394,209.841 C 12.05,210.133 11.719,210.503 11.406,210.947 C 11.093,211.391 10.797,211.91 10.522,212.502 C 10.248,213.094 9.994,213.759 9.765,214.497 C 9.536,215.234 9.332,216.042 9.157,216.922 C 8.802,218.678 8.56,220.709 8.441,222.983 C 8.321,225.253 8.323,227.763 8.453,230.483 C 8.583,233.198 8.842,236.122 9.236,239.225 C 9.63,242.321 10.16,245.594 10.833,249.014 C 11.334,251.575 11.897,254.124 12.511,256.642 C 13.125,259.158 13.79,261.643 14.499,264.079 C 15.207,266.512 15.957,268.896 16.741,271.213 C 17.524,273.527 18.342,275.775 19.183,277.938 C 20.019,280.095 20.883,282.166 21.758,284.127 C 22.633,286.089 23.519,287.941 24.402,289.666 C 25.285,291.389 26.165,292.983 27.025,294.427 C 27.886,295.871 28.728,297.164 29.536,298.286 C 30.08,299.04 30.599,299.716 31.098,300.317 C 31.597,300.92 32.075,301.449 32.535,301.913 C 32.995,302.377 33.439,302.774 33.868,303.114 C 34.297,303.454 34.711,303.734 35.115,303.964 L 314.83,460.724 C 315.447,461.07 316.053,461.544 316.621,462.105 C 317.188,462.667 317.718,463.315 318.181,464.009 C 318.644,464.702 319.04,465.443 319.344,466.188 C 319.647,466.932 319.857,467.681 319.945,468.393 C 320.033,469.105 319.992,469.712 319.842,470.201 C 319.692,470.69 319.434,471.06 319.088,471.298 C 318.742,471.536 318.307,471.64 317.806,471.599 C 317.305,471.558 316.736,471.37 316.12,471.023 L 36.957,313.536 C 36.06,313.03 35.157,312.409 34.256,311.691 C 33.356,310.972 32.457,310.156 31.567,309.259 C 30.678,308.362 29.798,307.384 28.934,306.341 C 28.071,305.299 27.224,304.192 26.401,303.036 C 25.57,301.875 24.756,300.661 23.958,299.399 C 23.16,298.137 22.377,296.827 21.61,295.472 C 20.842,294.118 20.09,292.719 19.353,291.281 C 18.616,289.842 17.893,288.362 17.185,286.847 C 15.773,283.816 14.415,280.632 13.127,277.33 C 11.838,274.024 10.618,270.6 9.482,267.088 C 8.345,263.572 7.293,259.969 6.339,256.312 C 5.384,252.649 4.527,248.93 3.786,245.192 C 3.232,242.385 2.763,239.665 2.376,237.04 C 1.989,234.411 1.685,231.877 1.462,229.451 C 1.239,227.021 1.098,224.698 1.036,222.493 C 0.974,220.285 0.993,218.194 1.09,216.234 C 1.193,214.275 1.37,212.44 1.628,210.746 C 1.886,209.05 2.225,207.495 2.649,206.098 C 3.074,204.699 3.584,203.459 4.186,202.394 C 4.789,201.328 5.483,200.437 6.274,199.739 C 6.797,199.276 7.372,198.906 7.998,198.639 C 8.624,198.372 9.301,198.211 10.026,198.165 C 10.752,198.12 11.525,198.191 12.344,198.392 C 13.163,198.595 14.028,198.925 14.937,199.397 z"
       id="path33"
       style="fill:#00aad4;stroke:#0088aa;stroke-width:2" /></g><metadata
     id="metadata3354"><rdf:RDF><cc:Work><dc:format>image/svg+xml</dc:format><dc:type
           rdf:resource="http://purl.org/dc/dcmitype/StillImage" /><cc:license
           rdf:resource="http://creativecommons.org/publicdomain/zero/1.0/" /><dc:publisher><cc:Agent
             rdf:about="http://openclipart.org/"><dc:title>Open Clip Art Library</dc:title></cc:Agent></dc:publisher><dc:title>Code Thesaurus Logo</dc:title><dc:date>2017-08-07T02:02:00</dc:date><dc:description></dc:description><dc:source>http://openclipart.org/detail/67633/book-by-gramzon</dc:source><dc:creator><cc:Agent><dc:title>geekygirlsarah</dc:title></cc:Agent></dc:creator><dc:subject><rdf:Bag /></dc:subject><dc:contributor><cc:Agent><dc:title>Original book imag: http://openclipart.org/detail/67633/book-by-gramzon
Modified by geekygirlsarah</dc:title></cc:Agent></dc:contributor></cc:Work><cc:License
         rdf:about="http://creativecommons.org/publicdomain/zero/1.0/"><cc:permits
           rdf:resource="http://creativecommons.org/ns#Reproduction" /><cc:permits
           rdf:resource="http://creativecommons.org/ns#Distribution" /><cc:permits
           rdf:resource="http://creativecommons.org/ns#DerivativeWorks" /></cc:License></rdf:RDF></metadata><flowRoot
     xml:space="preserve"
     id="flowRoot4174"
     style="font-style:normal;font-weight:normal;font-size:40px;line-height:125%;font-family:sans-serif;letter-spacing:0px;word-spacing:0px;fill:#e6e6e6;fill-opacity:1;stroke:#808080;stroke-width:1px;stroke-linecap:butt;stroke-linejoin:miter;stroke-opacity:1"
     transform="matrix(0.75833619,0.39220635,-1.6414247,1.5170155,286.04849,-206.92381)"><flowRegion
       id="flowRegion4176"><rect
         id="rect4178"
         width="314.12799"
         height="108.24681"
         x="278.04575"
         y="73.579529"
         style="fill:#e6e6e6;stroke:#808080" /></flowRegion><flowPara
       id="flowPara4180"
       style="font-size:60px;fill:#e6e6e6;stroke:#808080">&lt;code&gt;</flowPara></flowRoot></svg>